<svg xmlns="http://www.w3.org/2000/svg" width="1920" height="1080"><path d="M-295,-404L-87,-378L674,-409Z" fill="#e8f6be" stroke="#e8f6be" stroke-width="1.51"/><path d="M979,1416L705,1413L1239,1452Z" fill="#376d9f" stroke="#376d9f" stroke-width="1.51"/><path d="M705,1413L209,1491L1239,1452Z" fill="#4c739a" stroke="#4c739a" stroke-width="1.51"/><path d="M1239,1452L209,1491L1766,1496Z" fill="#2f6598" stroke="#2f6598" stroke-width="1.51"/><path d="M1236,-394L1529,-354L1772,-370Z" fill="#9eb6be" stroke="#9eb6be" stroke-width="1.51"/><path d="M1982,1427L1766,1496L2254,1400Z" fill="#1e3086" stroke="#1e3086" stroke-width="1.51"/><path d="M2050,448L2216,691L2296,356Z" fill="#3d6f9e" stroke="#3d6f9e" stroke-width="1.51"/><path d="M2285,96L2002,155L2296,356Z" fill="#617a9a" stroke="#617a9a" stroke-width="1.51"/><path d="M2002,155L2050,448L2296,356Z" fill="#5578a2" stroke="#5578a2" stroke-width="1.51"/><path d="M2030,-146L2285,96L2297,-136Z" fill="#808597" stroke="#808597" stroke-width="1.51"/><path d="M2009,-348L2030,-146L2297,-136Z" fill="#908c9f" stroke="#908c9f" stroke-width="1.51"/><path d="M2285,96L2296,356L2297,-136Z" fill="#6a7b90" stroke="#6a7b90" stroke-width="1.51"/><path d="M2029,953L2219,1182L2303,941Z" fill="#214792" stroke="#214792" stroke-width="1.51"/><path d="M2216,691L2029,953L2303,941Z" fill="#24579a" stroke="#24579a" stroke-width="1.51"/><path d="M2219,1182L2254,1400L2303,941Z" fill="#1d3886" stroke="#1d3886" stroke-width="1.51"/><path d="M2296,356L2216,691L2303,941Z" fill="#2c6196" stroke="#2c6196" stroke-width="1.51"/><path d="M674,-409L1236,-394L2310,-411Z" fill="#a0bec3" stroke="#a0bec3" stroke-width="1.51"/><path d="M1236,-394L1772,-370L2310,-411Z" fill="#9ca3b8" stroke="#9ca3b8" stroke-width="1.51"/><path d="M1772,-370L2009,-348L2310,-411Z" fill="#9a92b0" stroke="#9a92b0" stroke-width="1.51"/><path d="M2009,-348L2297,-136L2310,-411Z" fill="#8e8a9a" stroke="#8e8a9a" stroke-width="1.51"/><path d="M2297,-136L2296,356L2310,-411Z" fill="#7b818e" stroke="#7b818e" stroke-width="1.51"/><path d="M2296,356L2303,941L2310,-411Z" fill="#4f7291" stroke="#4f7291" stroke-width="1.51"/><path d="M674,-409L1017,-371L1236,-394Z" fill="#aad8c7" stroke="#aad8c7" stroke-width="1.51"/><path d="M2030,-146L2002,155L2285,96Z" fill="#7d86a0" stroke="#7d86a0" stroke-width="1.51"/><path d="M2041,679L2029,953L2216,691Z" fill="#2b62a4" stroke="#2b62a4" stroke-width="1.51"/><path d="M2050,448L2041,679L2216,691Z" fill="#376ca6" stroke="#376ca6" stroke-width="1.51"/><path d="M2219,1182L1999,1225L2254,1400Z" fill="#21348b" stroke="#21348b" stroke-width="1.51"/><path d="M1999,1225L1982,1427L2254,1400Z" fill="#22318c" stroke="#22318c" stroke-width="1.51"/><path d="M2029,953L1999,1225L2219,1182Z" fill="#244397" stroke="#244397" stroke-width="1.51"/><path d="M1794,-127L1752,153L2002,155Z" fill="#7e94ac" stroke="#7e94ac" stroke-width="1.51"/><path d="M1775,982L1999,1225L2029,953Z" fill="#2550a2" stroke="#2550a2" stroke-width="1.51"/><path d="M1720,688L1775,982L2029,953Z" fill="#2866ac" stroke="#2866ac" stroke-width="1.51"/><path d="M2009,-348L1794,-127L2030,-146Z" fill="#9595a8" stroke="#9595a8" stroke-width="1.51"/><path d="M1794,-127L2002,155L2030,-146Z" fill="#8891a9" stroke="#8891a9" stroke-width="1.51"/><path d="M1720,688L2029,953L2041,679Z" fill="#2d6aad" stroke="#2d6aad" stroke-width="1.51"/><path d="M1777,387L1720,688L2041,679Z" fill="#397cb1" stroke="#397cb1" stroke-width="1.51"/><path d="M1777,387L2041,679L2050,448Z" fill="#4379ae" stroke="#4379ae" stroke-width="1.51"/><path d="M2002,155L1777,387L2050,448Z" fill="#5882ac" stroke="#5882ac" stroke-width="1.51"/><path d="M1752,153L1777,387L2002,155Z" fill="#658bae" stroke="#658bae" stroke-width="1.51"/><path d="M1772,-370L1794,-127L2009,-348Z" fill="#999cad" stroke="#999cad" stroke-width="1.51"/><path d="M1775,982L1707,1197L1999,1225Z" fill="#264fa1" stroke="#264fa1" stroke-width="1.51"/><path d="M1707,1197L1766,1496L1982,1427Z" fill="#233e93" stroke="#233e93" stroke-width="1.51"/><path d="M1707,1197L1982,1427L1999,1225Z" fill="#263f99" stroke="#263f99" stroke-width="1.51"/><path d="M1454,1400L1239,1452L1766,1496Z" fill="#225095" stroke="#225095" stroke-width="1.51"/><path d="M1707,1197L1454,1400L1766,1496Z" fill="#244999" stroke="#244999" stroke-width="1.51"/><path d="M1529,-354L1523,-154L1772,-370Z" fill="#9bacb5" stroke="#9bacb5" stroke-width="1.51"/><path d="M1720,688L1513,872L1775,982Z" fill="#2373b2" stroke="#2373b2" stroke-width="1.51"/><path d="M1462,452L1720,688L1777,387Z" fill="#3d8cb6" stroke="#3d8cb6" stroke-width="1.51"/><path d="M1752,153L1445,167L1777,387Z" fill="#6397b3" stroke="#6397b3" stroke-width="1.51"/><path d="M1445,167L1462,452L1777,387Z" fill="#549ab7" stroke="#549ab7" stroke-width="1.51"/><path d="M1772,-370L1523,-154L1794,-127Z" fill="#97a5af" stroke="#97a5af" stroke-width="1.51"/><path d="M1523,-154L1752,153L1794,-127Z" fill="#89a1af" stroke="#89a1af" stroke-width="1.51"/><path d="M1523,-154L1445,167L1752,153Z" fill="#80a6b4" stroke="#80a6b4" stroke-width="1.51"/><path d="M1513,872L1707,1197L1775,982Z" fill="#2362ab" stroke="#2362ab" stroke-width="1.51"/><path d="M1513,872L1432,1205L1707,1197Z" fill="#2464ab" stroke="#2464ab" stroke-width="1.51"/><path d="M1462,452L1477,709L1720,688Z" fill="#318dba" stroke="#318dba" stroke-width="1.51"/><path d="M1432,1205L1454,1400L1707,1197Z" fill="#2857a5" stroke="#2857a5" stroke-width="1.51"/><path d="M1477,709L1513,872L1720,688Z" fill="#2682b8" stroke="#2682b8" stroke-width="1.51"/><path d="M-87,-378L173,-339L674,-409Z" fill="#def2bd" stroke="#def2bd" stroke-width="1.51"/><path d="M1257,885L1432,1205L1513,872Z" fill="#2378b5" stroke="#2378b5" stroke-width="1.51"/><path d="M1262,105L1445,167L1523,-154Z" fill="#83b4b9" stroke="#83b4b9" stroke-width="1.51"/><path d="M1170,-53L1262,105L1523,-154Z" fill="#8bbdbb" stroke="#8bbdbb" stroke-width="1.51"/><path d="M1236,-394L1523,-154L1529,-354Z" fill="#9dbbbb" stroke="#9dbbbb" stroke-width="1.51"/><path d="M1445,167L1172,368L1462,452Z" fill="#55a9bd" stroke="#55a9bd" stroke-width="1.51"/><path d="M1462,452L1220,691L1477,709Z" fill="#2f99bf" stroke="#2f99bf" stroke-width="1.51"/><path d="M1477,709L1257,885L1513,872Z" fill="#2088bc" stroke="#2088bc" stroke-width="1.51"/><path d="M1236,-394L1170,-53L1523,-154Z" fill="#99c2ba" stroke="#99c2ba" stroke-width="1.51"/><path d="M1257,885L1215,1181L1432,1205Z" fill="#2676b3" stroke="#2676b3" stroke-width="1.51"/><path d="M1262,105L1172,368L1445,167Z" fill="#68b3bd" stroke="#68b3bd" stroke-width="1.51"/><path d="M1432,1205L1239,1452L1454,1400Z" fill="#295da4" stroke="#295da4" stroke-width="1.51"/><path d="M1220,691L1257,885L1477,709Z" fill="#2193c1" stroke="#2193c1" stroke-width="1.51"/><path d="M1215,1181L1239,1452L1432,1205Z" fill="#2c67ac" stroke="#2c67ac" stroke-width="1.51"/><path d="M1172,368L1220,691L1462,452Z" fill="#3ba6c2" stroke="#3ba6c2" stroke-width="1.51"/><path d="M969,395L957,684L1172,368Z" fill="#48b4c3" stroke="#48b4c3" stroke-width="1.51"/><path d="M1009,1170L979,1416L1215,1181Z" fill="#3874ae" stroke="#3874ae" stroke-width="1.51"/><path d="M1172,368L957,684L1220,691Z" fill="#39abc3" stroke="#39abc3" stroke-width="1.51"/><path d="M1017,-371L1170,-53L1236,-394Z" fill="#a2cdbd" stroke="#a2cdbd" stroke-width="1.51"/><path d="M1215,1181L979,1416L1239,1452Z" fill="#3469a8" stroke="#3469a8" stroke-width="1.51"/><path d="M1009,1170L1215,1181L1257,885Z" fill="#2e7db5" stroke="#2e7db5" stroke-width="1.51"/><path d="M917,957L1009,1170L1257,885Z" fill="#3289b8" stroke="#3289b8" stroke-width="1.51"/><path d="M1220,691L957,684L1257,885Z" fill="#2c9dc2" stroke="#2c9dc2" stroke-width="1.51"/><path d="M957,684L917,957L1257,885Z" fill="#309bc0" stroke="#309bc0" stroke-width="1.51"/><path d="M956,148L1172,368L1262,105Z" fill="#6dbcbe" stroke="#6dbcbe" stroke-width="1.51"/><path d="M1170,-53L956,148L1262,105Z" fill="#84c3bc" stroke="#84c3bc" stroke-width="1.51"/><path d="M173,-339L473,-348L674,-409Z" fill="#cdebbe" stroke="#cdebbe" stroke-width="1.51"/><path d="M1017,-371L926,-110L1170,-53Z" fill="#9ed0bc" stroke="#9ed0bc" stroke-width="1.51"/><path d="M926,-110L956,148L1170,-53Z" fill="#91cdbc" stroke="#91cdbc" stroke-width="1.51"/><path d="M956,148L969,395L1172,368Z" fill="#60bcc0" stroke="#60bcc0" stroke-width="1.51"/><path d="M703,430L957,684L969,395Z" fill="#50bac3" stroke="#50bac3" stroke-width="1.51"/><path d="M705,1413L979,1416L1009,1170Z" fill="#4475ab" stroke="#4475ab" stroke-width="1.51"/><path d="M644,1168L705,1413L1009,1170Z" fill="#4e7ead" stroke="#4e7ead" stroke-width="1.51"/><path d="M733,-153L926,-110L1017,-371Z" fill="#a7d8ba" stroke="#a7d8ba" stroke-width="1.51"/><path d="M674,-409L733,-153L1017,-371Z" fill="#b0ddbf" stroke="#b0ddbf" stroke-width="1.51"/><path d="M730,712L917,957L957,684Z" fill="#40a7c1" stroke="#40a7c1" stroke-width="1.51"/><path d="M956,148L687,158L969,395Z" fill="#73c7be" stroke="#73c7be" stroke-width="1.51"/><path d="M917,957L644,1168L1009,1170Z" fill="#4589b4" stroke="#4589b4" stroke-width="1.51"/><path d="M383,1396L209,1491L705,1413Z" fill="#687d9a" stroke="#687d9a" stroke-width="1.51"/><path d="M926,-110L687,158L956,148Z" fill="#8fd0bb" stroke="#8fd0bb" stroke-width="1.51"/><path d="M703,430L730,712L957,684Z" fill="#50b6c2" stroke="#50b6c2" stroke-width="1.51"/><path d="M687,158L703,430L969,395Z" fill="#6dc5bf" stroke="#6dc5bf" stroke-width="1.51"/><path d="M733,-153L687,158L926,-110Z" fill="#9fd6ba" stroke="#9fd6ba" stroke-width="1.51"/><path d="M730,712L655,931L917,957Z" fill="#4ca2bd" stroke="#4ca2bd" stroke-width="1.51"/><path d="M655,931L644,1168L917,957Z" fill="#4f94b6" stroke="#4f94b6" stroke-width="1.51"/><path d="M-60,1439L-398,1479L209,1491Z" fill="#8a8794" stroke="#8a8794" stroke-width="1.51"/><path d="M426,-155L381,142L687,158Z" fill="#acddb7" stroke="#acddb7" stroke-width="1.51"/><path d="M687,158L421,382L703,430Z" fill="#7bcbbc" stroke="#7bcbbc" stroke-width="1.51"/><path d="M644,1168L476,1224L705,1413Z" fill="#5d82ab" stroke="#5d82ab" stroke-width="1.51"/><path d="M703,430L491,707L730,712Z" fill="#5fbac0" stroke="#5fbac0" stroke-width="1.51"/><path d="M491,707L655,931L730,712Z" fill="#59afbe" stroke="#59afbe" stroke-width="1.51"/><path d="M674,-409L473,-348L733,-153Z" fill="#bbe2bc" stroke="#bbe2bc" stroke-width="1.51"/><path d="M473,-348L426,-155L733,-153Z" fill="#bee4b6" stroke="#bee4b6" stroke-width="1.51"/><path d="M426,-155L687,158L733,-153Z" fill="#aadcb7" stroke="#aadcb7" stroke-width="1.51"/><path d="M381,142L421,382L687,158Z" fill="#93d4ba" stroke="#93d4ba" stroke-width="1.51"/><path d="M421,382L491,707L703,430Z" fill="#70c5bf" stroke="#70c5bf" stroke-width="1.51"/><path d="M476,1224L383,1396L705,1413Z" fill="#657fa5" stroke="#657fa5" stroke-width="1.51"/><path d="M404,932L644,1168L655,931Z" fill="#609ab4" stroke="#609ab4" stroke-width="1.51"/><path d="M404,932L476,1224L644,1168Z" fill="#6792b0" stroke="#6792b0" stroke-width="1.51"/><path d="M491,707L404,932L655,931Z" fill="#67acbb" stroke="#67acbb" stroke-width="1.51"/><path d="M182,664L227,925L404,932Z" fill="#83b6ba" stroke="#83b6ba" stroke-width="1.51"/><path d="M238,395L182,664L421,382Z" fill="#91d0bc" stroke="#91d0bc" stroke-width="1.51"/><path d="M404,932L159,1148L476,1224Z" fill="#7999af" stroke="#7999af" stroke-width="1.51"/><path d="M421,382L182,664L491,707Z" fill="#81c8bd" stroke="#81c8bd" stroke-width="1.51"/><path d="M182,664L404,932L491,707Z" fill="#7bbabc" stroke="#7bbabc" stroke-width="1.51"/><path d="M227,925L159,1148L404,932Z" fill="#83a6b2" stroke="#83a6b2" stroke-width="1.51"/><path d="M199,-150L381,142L426,-155Z" fill="#c4e7b5" stroke="#c4e7b5" stroke-width="1.51"/><path d="M173,-339L426,-155L473,-348Z" fill="#d2ecb7" stroke="#d2ecb7" stroke-width="1.51"/><path d="M159,1148L383,1396L476,1224Z" fill="#7a8caa" stroke="#7a8caa" stroke-width="1.51"/><path d="M157,158L238,395L381,142Z" fill="#aaddb7" stroke="#aaddb7" stroke-width="1.51"/><path d="M199,-150L157,158L381,142Z" fill="#c3e7b5" stroke="#c3e7b5" stroke-width="1.51"/><path d="M381,142L238,395L421,382Z" fill="#99d6b9" stroke="#99d6b9" stroke-width="1.51"/><path d="M173,-339L199,-150L426,-155Z" fill="#d6efb3" stroke="#d6efb3" stroke-width="1.51"/><path d="M159,1148L209,1491L383,1396Z" fill="#8188a4" stroke="#8188a4" stroke-width="1.51"/><path d="M-45,1176L-60,1439L159,1148Z" fill="#9094a9" stroke="#9094a9" stroke-width="1.51"/><path d="M-115,-112L157,158L199,-150Z" fill="#d4eeb3" stroke="#d4eeb3" stroke-width="1.51"/><path d="M159,1148L-60,1439L209,1491Z" fill="#888aa2" stroke="#888aa2" stroke-width="1.51"/><path d="M-131,987L159,1148L227,925Z" fill="#8ea8b2" stroke="#8ea8b2" stroke-width="1.51"/><path d="M182,664L-109,676L227,925Z" fill="#92c2bb" stroke="#92c2bb" stroke-width="1.51"/><path d="M-109,676L-131,987L227,925Z" fill="#96bab8" stroke="#96bab8" stroke-width="1.51"/><path d="M-60,440L182,664L238,395Z" fill="#9bd4bc" stroke="#9bd4bc" stroke-width="1.51"/><path d="M157,158L-60,440L238,395Z" fill="#a9dbb8" stroke="#a9dbb8" stroke-width="1.51"/><path d="M-110,178L-60,440L157,158Z" fill="#b7e1b6" stroke="#b7e1b6" stroke-width="1.51"/><path d="M-131,987L-45,1176L159,1148Z" fill="#92a1ae" stroke="#92a1ae" stroke-width="1.51"/><path d="M173,-339L-115,-112L199,-150Z" fill="#e0f3b2" stroke="#e0f3b2" stroke-width="1.51"/><path d="M-115,-112L-110,178L157,158Z" fill="#cfebb4" stroke="#cfebb4" stroke-width="1.51"/><path d="M-87,-378L-115,-112L173,-339Z" fill="#e9f7b4" stroke="#e9f7b4" stroke-width="1.51"/><path d="M-60,440L-109,676L182,664Z" fill="#9dd0bc" stroke="#9dd0bc" stroke-width="1.51"/><path d="M-295,-404L-329,-128L-115,-112Z" fill="#eff9b8" stroke="#eff9b8" stroke-width="1.51"/><path d="M-115,-112L-389,124L-110,178Z" fill="#d7efb8" stroke="#d7efb8" stroke-width="1.51"/><path d="M-385,951L-131,987L-109,676Z" fill="#9dbcbc" stroke="#9dbcbc" stroke-width="1.51"/><path d="M-295,-404L-115,-112L-87,-378Z" fill="#f1f9b8" stroke="#f1f9b8" stroke-width="1.51"/><path d="M-286,446L-109,676L-60,440Z" fill="#a8d8bd" stroke="#a8d8bd" stroke-width="1.51"/><path d="M-110,178L-286,446L-60,440Z" fill="#b5dfba" stroke="#b5dfba" stroke-width="1.51"/><path d="M-283,1212L-60,1439L-45,1176Z" fill="#9894a8" stroke="#9894a8" stroke-width="1.51"/><path d="M-131,987L-283,1212L-45,1176Z" fill="#99a2af" stroke="#99a2af" stroke-width="1.51"/><path d="M-329,-128L-389,124L-115,-112Z" fill="#e3f4bb" stroke="#e3f4bb" stroke-width="1.51"/><path d="M-283,1212L-398,1479L-60,1439Z" fill="#958ea6" stroke="#958ea6" stroke-width="1.51"/><path d="M-286,446L-383,647L-109,676Z" fill="#a7d4c3" stroke="#a7d4c3" stroke-width="1.51"/><path d="M-383,647L-385,951L-109,676Z" fill="#a2c8c4" stroke="#a2c8c4" stroke-width="1.51"/><path d="M-389,124L-286,446L-110,178Z" fill="#c1e5be" stroke="#c1e5be" stroke-width="1.51"/><path d="M-385,951L-283,1212L-131,987Z" fill="#9ba9b8" stroke="#9ba9b8" stroke-width="1.51"/><path d="M-389,124L-383,647L-286,446Z" fill="#b5dfc6" stroke="#b5dfc6" stroke-width="1.51"/><path d="M-385,951L-398,1479L-283,1212Z" fill="#9c9bb6" stroke="#9c9bb6" stroke-width="1.51"/><path d="M-389,124L-329,-128L-295,-404Z" fill="#ebf7be" stroke="#ebf7be" stroke-width="1.51"/><path d="M-389,124L-385,951L-383,647Z" fill="#aad7cb" stroke="#aad7cb" stroke-width="1.51"/><path d="M-389,124L-398,1479L-385,951Z" fill="#a1c0c7" stroke="#a1c0c7" stroke-width="1.51"/></svg>